<svg width="93" height="86" viewBox="0 0 93 86" fill="none" xmlns="http://www.w3.org/2000/svg">
<path d="M8.08594 44.3516C6.80859 44.3516 5.63086 44.0234 4.55273 43.3672C3.48633 42.7109 2.625 41.8379 1.96875 40.748C1.32422 39.6465 1.00195 38.4395 1.00195 37.127L1.03711 25.7188C1.03711 24.3828 1.35938 23.1816 2.00391 22.1152C2.63672 21.0371 3.49219 20.1758 4.57031 19.5312C5.64844 18.875 6.82031 18.5469 8.08594 18.5469C9.39844 18.5469 10.5762 18.8691 11.6191 19.5137C12.6738 20.1582 13.5176 21.0254 14.1504 22.1152C14.7949 23.1934 15.1172 24.3945 15.1172 25.7188L15.1523 37.127C15.1523 38.4395 14.8359 39.6406 14.2031 40.7305C13.5586 41.832 12.7031 42.7109 11.6367 43.3672C10.5703 44.0234 9.38672 44.3516 8.08594 44.3516ZM8.08594 40.0098C8.8125 40.0098 9.44531 39.7168 9.98438 39.1309C10.5234 38.5332 10.793 37.8652 10.793 37.127L10.7578 25.7188C10.7578 24.9219 10.5059 24.248 10.002 23.6973C9.49805 23.1465 8.85938 22.8711 8.08594 22.8711C7.34766 22.8711 6.71484 23.1406 6.1875 23.6797C5.66016 24.2188 5.39648 24.8984 5.39648 25.7188V37.127C5.39648 37.9121 5.66016 38.5918 6.1875 39.166C6.71484 39.7285 7.34766 40.0098 8.08594 40.0098ZM24.5039 44.3516C23.2031 44.3516 22.0137 44.0234 20.9355 43.3672C19.8691 42.7109 19.0195 41.832 18.3867 40.7305C17.7656 39.6172 17.4551 38.3809 17.4551 37.0215L17.4902 25.7891C17.4902 24.4531 17.7949 23.2461 18.4043 22.168C19.0137 21.0781 19.8516 20.2051 20.918 19.5488C21.9961 18.8809 23.1914 18.5469 24.5039 18.5469C25.8398 18.5469 27.0293 18.8691 28.0723 19.5137C29.127 20.1582 29.9648 21.0312 30.5859 22.1328C31.2188 23.2227 31.5352 24.4414 31.5352 25.7891V27.4414C31.5352 27.5352 31.4883 27.582 31.3945 27.582H27.3516C27.2578 27.582 27.2109 27.5352 27.2109 27.4414V25.7891C27.2109 24.9922 26.9531 24.3066 26.4375 23.7324C25.9219 23.1582 25.2773 22.8711 24.5039 22.8711C23.6484 22.8711 22.9922 23.1641 22.5352 23.75C22.0781 24.3359 21.8496 25.0156 21.8496 25.7891V37.0215C21.8496 37.9004 22.1074 38.6211 22.623 39.1836C23.1387 39.7344 23.7656 40.0098 24.5039 40.0098C25.2773 40.0098 25.9219 39.7051 26.4375 39.0957C26.9531 38.4746 27.2109 37.7832 27.2109 37.0215V35.3516C27.2109 35.2578 27.2578 35.2109 27.3516 35.2109H31.4297C31.5234 35.2109 31.5703 35.2578 31.5703 35.3516V37.0215C31.5703 38.3691 31.2539 39.5996 30.6211 40.7129C29.9766 41.8145 29.127 42.6992 28.0723 43.3672C27.0176 44.0234 25.8281 44.3516 24.5039 44.3516ZM40.8164 44.3516C39.5156 44.3516 38.3262 44.0234 37.248 43.3672C36.1816 42.7109 35.332 41.832 34.6992 40.7305C34.0781 39.6172 33.7676 38.3809 33.7676 37.0215L33.8027 25.7891C33.8027 24.4531 34.1074 23.2461 34.7168 22.168C35.3262 21.0781 36.1641 20.2051 37.2305 19.5488C38.3086 18.8809 39.5039 18.5469 40.8164 18.5469C42.1523 18.5469 43.3418 18.8691 44.3848 19.5137C45.4395 20.1582 46.2773 21.0312 46.8984 22.1328C47.5312 23.2227 47.8477 24.4414 47.8477 25.7891V27.4414C47.8477 27.5352 47.8008 27.582 47.707 27.582H43.6641C43.5703 27.582 43.5234 27.5352 43.5234 27.4414V25.7891C43.5234 24.9922 43.2656 24.3066 42.75 23.7324C42.2344 23.1582 41.5898 22.8711 40.8164 22.8711C39.9609 22.8711 39.3047 23.1641 38.8477 23.75C38.3906 24.3359 38.1621 25.0156 38.1621 25.7891V37.0215C38.1621 37.9004 38.4199 38.6211 38.9355 39.1836C39.4512 39.7344 40.0781 40.0098 40.8164 40.0098C41.5898 40.0098 42.2344 39.7051 42.75 39.0957C43.2656 38.4746 43.5234 37.7832 43.5234 37.0215V35.3516C43.5234 35.2578 43.5703 35.2109 43.6641 35.2109H47.7422C47.8359 35.2109 47.8828 35.2578 47.8828 35.3516V37.0215C47.8828 38.3691 47.5664 39.5996 46.9336 40.7129C46.2891 41.8145 45.4395 42.6992 44.3848 43.3672C43.3301 44.0234 42.1406 44.3516 40.8164 44.3516Z" fill="#2521D9"/>
</svg>
